Coordinates
version=1
nRows=14
nColumns=46
inDegrees=yes

Units are S.I. units (second, meters, Newtons, ...)
Angles are in degrees.

endheader
time	pelvis_tilt	pelvis_list	pelvis_rotation	pelvis_tx	pelvis_ty	pelvis_tz	bb_angle	bb_tx	bb_ty	bb_tz	hip_flexion_r	hip_adduction_r	hip_rotation_r	knee_angle_r	knee_angle_r_beta	ankle_angle_r	subtalar_angle_r	mtp_angle_r	crank_angle_r	hip_flexion_l	hip_adduction_l	hip_rotation_l	knee_angle_l	knee_angle_l_beta	ankle_angle_l	subtalar_angle_l	mtp_angle_l	crank_angle_l	lumbar_extension	lumbar_bending	lumbar_rotation	arm_flex_r	arm_add_r	arm_rot_r	elbow_flex_r	pro_sup_r	wrist_flex_r	wrist_dev_r	arm_flex_l	arm_add_l	arm_rot_l	elbow_flex_l	pro_sup_l	wrist_flex_l	wrist_dev_l
      2.50000000	    -24.59523197	     11.99154805	      4.01403066	      0.21585911	      1.12901093	     -0.28498269	      0.00000000	      0.50000000	      0.00000000	      0.25000000	     40.62366006	    -15.11472382	      9.21020828	     24.50672104	      0.42772297	     -6.92871771	    -10.23775470	      0.00000000	      0.00000000	     72.88803931	      1.67261799	     -7.90325824	    108.31497710	      1.89045298	      8.91048578	     -5.70748776	      0.00000000	      0.00000000	    -40.37996344	     -6.05592602	     -4.14645750	     63.09725915	    -32.35916966	     43.54831702	     57.62825635	     45.92657184	      0.00000000	      0.00000000	     66.82253884	    -21.95233198	     49.49202330	     47.12749787	     45.90736754	      0.00000000	      0.00000000
      2.50500000	    -24.18709150	     12.10717423	      3.98649057	      0.21743808	      1.12992231	     -0.28502951	      0.00000000	      0.50000000	      0.00000000	      0.25000000	     39.70613514	    -15.32150050	      8.91956020	     23.99498907	      0.41879156	     -7.39323774	    -10.10770883	      0.00000000	      0.00000000	     72.77462051	      1.76277822	     -7.90100586	    108.58269310	      1.89512551	      8.78587191	     -5.73962634	      0.00000000	      0.00000000	    -40.55078971	     -6.18262406	     -4.39481369	     63.19173401	    -31.64286968	     43.65142706	     56.12038819	     45.73987360	      0.00000000	      0.00000000	     66.70512127	    -21.65331062	     49.50935942	     46.27891689	     45.80858131	      0.00000000	      0.00000000
      2.51000000	    -24.06258771	     12.22380381	      3.93686697	      0.21861450	      1.12998905	     -0.28499066	      0.00000000	      0.50000000	      0.00000000	      0.25000000	     39.32288485	    -15.45252411	      8.83331003	     23.93585522	      0.41775948	     -7.56456331	    -10.01676813	      0.00000000	      0.00000000	     73.06406334	      1.70431331	     -7.99590085	    108.97273694	      1.90193305	      8.66909240	     -5.69248032	      0.00000000	      0.00000000	    -40.47705262	     -6.37659763	     -4.49519924	     63.09214124	    -31.59451595	     43.69109422	     56.01050339	     45.73091219	      0.00000000	      0.00000000	     66.57636394	    -21.60436306	     49.54560209	     46.21774747	     45.80668254	      0.00000000	      0.00000000
      2.51500000	    -23.88591014	     12.33441574	      3.87120112	      0.22025068	      1.13056476	     -0.28492034	      0.00000000	      0.50000000	      0.00000000	      0.25000000	     38.69905912	    -15.61027022	      8.60810953	     23.48097088	      0.40982025	     -8.13911971	     -9.63290618	      0.00000000	      0.00000000	     73.19110468	      1.64369632	     -8.09100884	    109.21331639	      1.90613196	      8.37467200	     -5.60588217	      0.00000000	      0.00000000	    -40.36157445	     -6.62718347	     -4.61028949	     62.57897715	    -31.26933160	     43.88646297	     55.36057900	     45.66663607	      0.00000000	      0.00000000	     66.14840942	    -21.45766391	     49.64318676	     45.86470127	     45.77681421	      0.00000000	      0.00000000
      2.52000000	    -23.75865211	     12.44379280	      3.82827297	      0.22136421	      1.13062989	     -0.28494174	      0.00000000	      0.50000000	      0.00000000	      0.25000000	     38.31511115	    -15.73982853	      8.54344558	     23.41666062	      0.40869783	     -8.28157296	     -9.57229731	      0.00000000	      0.00000000	     73.46595142	      1.65294114	     -8.12852282	    109.56518076	      1.91227315	      8.30290751	     -5.60628361	      0.00000000	      0.00000000	    -40.29705320	     -6.81409602	     -4.69141020	     62.51235290	    -31.21988734	     43.90486053	     55.22311444	     45.65009446	      0.00000000	      0.00000000	     66.04598679	    -21.40025846	     49.66748491	     45.79185897	     45.77088373	      0.00000000	      0.00000000
      2.52500000	    -23.46108521	     12.55499828	      3.87376434	      0.22296384	      1.13145225	     -0.28505302	      0.00000000	      0.50000000	      0.00000000	      0.25000000	     37.51534058	    -15.97048117	      8.25752953	     22.93803537	      0.40034424	     -8.92023624	     -9.36386698	      0.00000000	      0.00000000	     73.44830266	      1.74680261	     -8.21327742	    109.74415683	      1.91539687	      8.04934461	     -5.75241935	      0.00000000	      0.00000000	    -40.07802913	     -6.94786732	     -5.31054610	     62.96084407	    -28.72805203	     43.97722471	     50.45846645	     45.08674351	      0.00000000	      0.00000000	     65.72613591	    -20.69933121	     49.24382092	     43.24628724	     45.46166989	      0.00000000	      0.00000000
      2.53000000	    -23.34477812	     12.64239599	      3.82790428	      0.22409451	      1.13148307	     -0.28515668	      0.00000000	      0.50000000	      0.00000000	      0.25000000	     37.15792733	    -16.07824435	      8.21047529	     22.91915958	      0.40001480	     -9.06653783	     -9.29619472	      0.00000000	      0.00000000	     73.71542158	      1.73038002	     -8.26790664	    110.07268993	      1.92113086	      7.98465589	     -5.74632055	      0.00000000	      0.00000000	    -40.00822031	     -7.11774159	     -5.36090743	     62.86665560	    -28.71738562	     44.00678906	     50.42380322	     45.08855642	      0.00000000	      0.00000000	     65.60499118	    -20.67186597	     49.27051087	     43.24031486	     45.46736613	      0.00000000	      0.00000000
      2.53500000	    -23.11781764	     12.69430163	      3.83995217	      0.22565364	      1.13209212	     -0.28521727	      0.00000000	      0.50000000	      0.00000000	      0.25000000	     36.47057482	    -16.21392874	      7.99722272	     22.52472446	      0.39313060	     -9.64543844	     -9.10291722	      0.00000000	      0.00000000	     73.76681425	      1.73556767	     -8.32876823	    110.25469175	      1.92430739	      7.78680087	     -5.92801181	      0.00000000	      0.00000000	    -39.93021776	     -7.24353955	     -5.58739086	     62.67235988	    -27.90654423	     44.14484978	     48.74642621	     45.03027600	      0.00000000	      0.00000000	     65.09581484	    -20.38744029	     48.89739461	     42.60464536	     45.46362237	      0.00000000	      0.00000000
      2.54000000	    -22.99075177	     12.75876114	      3.80035005	      0.22698582	      1.13226707	     -0.28528610	      0.00000000	      0.50000000	      0.00000000	      0.25000000	     36.04199853	    -16.31175073	      7.90800564	     22.41648087	      0.39124140	     -9.91466057	     -8.96664834	      0.00000000	      0.00000000	     73.96181478	      1.69727753	     -8.39097239	    110.51183608	      1.92879540	      7.72246556	     -5.94035573	      0.00000000	      0.00000000	    -39.84463984	     -7.40670673	     -5.64107405	     62.34209221	    -27.86738287	     44.23255531	     48.61771181	     45.03485767	      0.00000000	      0.00000000	     64.79553639	    -20.33211332	     48.95148875	     42.56130136	     45.47475405	      0.00000000	      0.00000000
      2.54500000	    -22.89920731	     12.82015864	      3.83053289	      0.22835073	      1.13251828	     -0.28551346	      0.00000000	      0.50000000	      0.00000000	      0.25000000	     35.57457317	    -16.45324844	      7.82121730	     22.17768772	      0.38707367	    -10.29769242	     -8.80045099	      0.00000000	      0.00000000	     74.16861200	      1.74810940	     -8.44772678	    110.71585509	      1.93235621	      7.70068803	     -5.99290423	      0.00000000	      0.00000000	    -39.77334956	     -7.50997815	     -5.67944132	     61.85327198	    -27.77895000	     43.74156697	     48.60565718	     44.99430145	      0.00000000	      0.00000000	     64.34319014	    -20.21614951	     48.42930880	     42.75583595	     45.44120647	      0.00000000	      0.00000000
      2.55000000	    -22.84198889	     12.83905787	      3.80946720	      0.22953112	      1.13233418	     -0.28562396	      0.00000000	      0.50000000	      0.00000000	      0.25000000	     35.33462728	    -16.50731449	      7.71369802	     22.34981859	      0.39007792	    -10.21220536	     -8.61960373	      0.00000000	      0.00000000	     74.46755164	      1.70316060	     -8.46785192	    111.00655280	      1.93742984	      7.74135905	     -5.99881007	      0.00000000	      0.00000000	    -39.65690565	     -7.60288575	     -5.64917467	     61.36476025	    -27.66320258	     43.04623588	     48.99181786	     44.97453102	      0.00000000	      0.00000000	     63.89613118	    -20.15299819	     47.69520320	     43.25780696	     45.41270182	      0.00000000	      0.00000000
      2.55500000	    -22.55935526	     12.91553800	      3.86741148	      0.23097844	      1.13303286	     -0.28580726	      0.00000000	      0.50000000	      0.00000000	      0.25000000	     34.57521187	    -16.66339465	      7.65313928	     21.98687707	      0.38374340	    -10.86144821	     -8.77891947	      0.00000000	      0.00000000	     74.41795320	      1.84903521	     -8.50731010	    111.11216439	      1.93927311	      7.62641951	     -6.28591104	      0.00000000	      0.00000000	    -39.62740690	     -7.74652780	     -5.85775326	     61.59540558	    -26.78392092	     43.73950665	     46.31793711	     44.79237176	      0.00000000	      0.00000000	     64.04940751	    -19.45777904	     48.42652356	     41.03930525	     45.27021597	      0.00000000	      0.00000000
      2.56000000	    -22.52725683	     12.95230096	      3.90482233	      0.23221052	      1.13298536	     -0.28601920	      0.00000000	      0.50000000	      0.00000000	      0.25000000	     34.28688361	    -16.75981898	      7.60268190	     22.02759691	      0.38445409	    -10.96171866	     -8.61924045	      0.00000000	      0.00000000	     74.69239957	      1.89769096	     -8.52470158	    111.31256215	      1.94277071	      7.67541476	     -6.30047132	      0.00000000	      0.00000000	    -39.53557595	     -7.84071929	     -5.89934105	     61.08820667	    -26.76637133	     43.06258637	     46.66895313	     44.77813837	      0.00000000	      0.00000000	     63.57144036	    -19.42354409	     47.71611148	     41.50691912	     45.24751867	      0.00000000	      0.00000000
      2.56500000	    -22.32584484	     13.07620304	      3.97654886	      0.23361077	      1.13344596	     -0.28621585	      0.00000000	      0.50000000	      0.00000000	      0.25000000	     33.68508517	    -16.96549436	      7.50485793	     21.78677549	      0.38025097	    -11.49635704	     -8.79929033	      0.00000000	      0.00000000	     74.72079856	      2.10389949	     -8.56326828	    111.39996648	      1.94429620	      7.63965377	     -6.45685548	      0.00000000	      0.00000000	    -39.60406207	     -7.99728558	     -6.03496288	     60.65674201	    -26.60017903	     42.77769453	     46.46823511	     44.74105800	      0.00000000	      0.00000000	     63.28327956	    -19.23486515	     47.45532374	     41.37964427	     45.20645696	      0.00000000	      0.00000000
